# xmcd
#
# Track frame offsets: 
#        150
#        32159
#        76092
#        110484
#        147985
#        179694
#        220104
#        246109
#        278680
#        320845
#
# Disc length: 4741 seconds
#
# Revision: 8
# Processed by: cddbd v1.5.2PL0 Copyright (c) Steve Scherf et al.
# Submitted via: ExactAudioCopyFreeDBPlugin 1.0
#
DISCID=9012830a
DTITLE=Andreas Fröhlich - Eragon [CD14)
DYEAR=2005
DGENRE=Hörbuch
TTITLE0=Auf der Jagd nach Antworten (Teil 3)
TTITLE1=Auf der Jagd nach Antworten (Teil 4)
TTITLE2=Prachtvolles Tronjheim (Teil 1)
TTITLE3=Prachtvolles Tronjheim (Teil 2)
TTITLE4=Prachtvolles Tronjheim (Teil 3)
TTITLE5=Ajihad (Teil 1)
TTITLE6=Ajihad (Teil 2)
TTITLE7=Ajihad (Teil 3)
TTITLE8=Ajihad (Teil 4)
TTITLE9=Ajihad (Teil 5)
EXTD=
EXTT0=
EXTT1=
EXTT2=
EXTT3=
EXTT4=
EXTT5=
EXTT6=
EXTT7=
EXTT8=
EXTT9=
PLAYORDER=
